/* XPM */
static char *icon_xpm[] = {
/* columns rows colors chars-per-pixel */
"48 48 2 1",
"  c #000000",
"X c #87D7FF",
/* pixels */
"XXXXXXXXXXXXXXXXXXXXXXXXXXXXXXXXXXXXXXXXXXXXXXXX",
"XXXXXXXXXXXXXXXXXXXXXXXXXXXXXXXXXXXXXXXXXXXXXXXX",
"XX                                            XX",
"XX                                            XX",
"XX                                            XX",
"XX                                            XX",
"XX                                            XX",
"XX                                            XX",
"XX                                            XX",
"XX                                            XX",
"XX                                            XX",
"XX                                            XX",
"XX                                            XX",
"XX                                            XX",
"XX                                            XX",
"XX                                            XX",
"XX         XXXXXXXXXXXXXXXXXXXXXXXXXX         XX",
"XX         XXXXXXXXXXXXXXXXXXXXXXXXXX         XX",
"XX                                            XX",
"XX                                            XX",
"XX          XXXXXXX  XXXXXX  XX    XX         XX",
"XX         XXXXXXXX XXXXXXXX XX    XX         XX",
"XX         XX       XX    XX XX    XX         XX",
"XX         XX       XXXXXXXX XX    XX         XX",
"XX         XX       XXXXXXX  XX    XX         XX",
"XX         XX       XX       XX    XX         XX",
"XX         XXXXXXXX XX       XXXXXXXX         XX",
"XX          XXXXXXX XX        XXXXXX          XX",
"XX                                            XX",
"XX                                            XX",
"XX         XXXXXXXXXXXXXXXXXXXXXXXXXX         XX",
"XX         XXXXXXXXXXXXXXXXXXXXXXXXXX         XX",
"XX                                            XX",
"XX                                            XX",
"XX                                            XX",
"XX                                            XX",
"XX                                            XX",
"XX                                            XX",
"XX                                            XX",
"XX                                            XX",
"XX                                            XX",
"XX                                            XX",
"XX                                            XX",
"XX                                            XX",
"XX                                            XX",
"XX                                            XX",
"XXXXXXXXXXXXXXXXXXXXXXXXXXXXXXXXXXXXXXXXXXXXXXXX",
"XXXXXXXXXXXXXXXXXXXXXXXXXXXXXXXXXXXXXXXXXXXXXXXX"
};
